<svg width="32" height="32" viewBox="0 0 32 32" fill="none" xmlns="http://www.w3.org/2000/svg">
<g clip-path="url(#clip0_72_7)">
<rect width="32" height="32" fill="white"/>
<path d="M18.0739 29.8517H5.1579V3.89471H7.97902V29.4808H18.0739V29.8517Z" fill="black"/>
<path d="M15.5745 22.0484C15.5745 24.1234 16.0936 25.4498 17.1318 26.0277C17.6262 26.2903 18.2565 26.4216 19.0229 26.4216C20.5802 26.4216 21.9645 25.7913 23.1758 24.5305C24.4117 23.2697 25.0792 22.1009 25.178 21.024L25.178 6.87979H27.7736L27.7736 23.7819C27.7736 24.5436 27.9096 25.1346 28.1815 25.5549C28.4781 25.9489 28.7747 26.159 29.0714 26.1853L29.4793 26.2641H30.6287V26.5792H28.3669C27.3534 26.5792 26.5747 26.3429 26.0309 25.8701C25.5118 25.3973 25.2398 24.9245 25.2151 24.4517L25.178 23.7819V22.0878C24.7331 23.2172 23.9421 24.281 22.805 25.2791C21.6679 26.2509 20.4195 26.7368 19.0599 26.7368C17.7251 26.7368 16.6251 26.6055 15.7599 26.3429C14.9194 26.0539 14.3138 25.6599 13.943 25.1609C13.3003 24.3466 12.9789 23.296 12.9789 22.009L12.9789 6.87979L15.5745 6.87979L15.5745 22.0484Z" fill="black"/>
</g>
<defs>
<clipPath id="clip0_72_7">
<rect width="32" height="32" fill="white"/>
</clipPath>
</defs>
</svg>
