<svg width="48" height="48" viewBox="0 0 48 48" fill="none" xmlns="http://www.w3.org/2000/svg">
<path d="M25.0667 23.4667V2.33333C25.0667 1.66667 25.3333 1.12222 25.8667 0.7C26.4 0.277778 27.0222 0.0666669 27.7333 0.0666669H45.4C46.1111 0.0666669 46.7222 0.277778 47.2333 0.7C47.7444 1.12222 48 1.66667 48 2.33333V14.2C48 14.9556 47.7556 15.5889 47.2667 16.1C46.7778 16.6111 46.1556 16.8667 45.4 16.8667H32L25.0667 23.4667ZM45 48C39.5778 48 34.1889 46.6667 28.8333 44C23.4778 41.3333 18.6667 37.8667 14.4 33.6C10.1333 29.3333 6.66667 24.5222 4 19.1667C1.33333 13.8111 0 8.42222 0 3C0 2.15556 0.288889 1.44444 0.866667 0.866667C1.44444 0.288889 2.15556 0 3 0H12.3333C12.9556 0 13.5 0.211111 13.9667 0.633333C14.4333 1.05556 14.7333 1.62222 14.8667 2.33333L16.6667 10.7333C16.7556 11.3556 16.7444 11.9222 16.6333 12.4333C16.5222 12.9444 16.2889 13.3778 15.9333 13.7333L9.26667 20.4667C11.7556 24.6 14.5444 28.2 17.6333 31.2667C20.7222 34.3333 24.2222 36.9333 28.1333 39.0667L34.4667 32.5333C34.9111 32.0444 35.4222 31.7 36 31.5C36.5778 31.3 37.1556 31.2667 37.7333 31.4L45.6667 33.1333C46.3333 33.2667 46.8889 33.6 47.3333 34.1333C47.7778 34.6667 48 35.2889 48 36V45C48 45.8444 47.7111 46.5556 47.1333 47.1333C46.5556 47.7111 45.8444 48 45 48Z" fill="black"/>
</svg>
