<svg width="136" height="46" viewBox="0 0 136 46" fill="none" xmlns="http://www.w3.org/2000/svg">
<path d="M24.8 45H0.47998V0.200012H5.79198V44.36H24.8V45Z" fill="black"/>
<path d="M32.54 37.64C32.54 41.0107 33.436 43.1653 35.228 44.104C36.0813 44.5307 37.1693 44.744 38.492 44.744C41.18 44.744 43.5693 43.72 45.66 41.672C47.7933 39.624 48.9453 37.7253 49.116 35.976V13H53.596V40.456C53.596 41.6933 53.8306 42.6533 54.3 43.336C54.812 43.976 55.324 44.3173 55.836 44.36L56.54 44.488H58.524V45H54.62C52.8706 45 51.5266 44.616 50.588 43.848C49.692 43.08 49.2226 42.312 49.18 41.544L49.116 40.456V37.704C48.348 39.5387 46.9826 41.2667 45.02 42.888C43.0573 44.4667 40.9026 45.256 38.556 45.256C36.252 45.256 34.3533 45.0427 32.86 44.616C31.4093 44.1467 30.364 43.5067 29.724 42.696C28.6146 41.3733 28.06 39.6667 28.06 37.576V13H32.54V37.64Z" fill="black"/>
<path d="M76.7235 13.256C73.6941 13.256 71.1555 14.7067 69.1075 17.608C67.1021 20.5093 66.0995 24.52 66.0995 29.64C66.0995 34.76 67.0168 38.5573 68.8515 41.032C70.7288 43.5067 73.1821 44.744 76.2115 44.744C80.0088 44.744 83.3795 44.104 86.3235 42.824L86.5155 43.272C83.4861 44.5947 79.9448 45.256 75.8915 45.256C71.8381 45.256 68.4675 43.976 65.7795 41.416C63.0915 38.856 61.7475 34.9093 61.7475 29.576C61.7475 24.2427 63.1555 20.104 65.9715 17.16C68.7875 14.216 72.3715 12.744 76.7235 12.744C79.1555 12.744 81.3955 13.2987 83.4435 14.408C85.5341 15.5173 87.0701 17.2027 88.0515 19.464H83.9555C83.3155 17.3733 82.3341 15.816 81.0115 14.792C79.7315 13.768 78.3021 13.256 76.7235 13.256Z" fill="black"/>
<path d="M99.088 45C97.3386 45 95.9947 44.616 95.056 43.848C94.16 43.08 93.6906 42.312 93.648 41.544L93.584 40.456V13H98.064V40.456C98.064 41.6933 98.2986 42.6533 98.768 43.336C99.28 43.976 99.7706 44.3173 100.24 44.36L101.008 44.488H102.992V45H99.088ZM93.968 5.83201C93.456 5.32001 93.2 4.68001 93.2 3.91201C93.2 3.14401 93.456 2.50401 93.968 1.99201C94.48 1.43734 95.12 1.16001 95.888 1.16001C96.656 1.16001 97.296 1.43734 97.808 1.99201C98.3626 2.50401 98.64 3.14401 98.64 3.91201C98.64 4.68001 98.3626 5.32001 97.808 5.83201C97.296 6.34401 96.656 6.60001 95.888 6.60001C95.12 6.60001 94.48 6.34401 93.968 5.83201Z" fill="black"/>
<path d="M120.103 45.256C115.623 45.256 111.975 43.976 109.159 41.416C106.343 38.856 104.935 34.9093 104.935 29.576C104.935 24.2427 106.386 20.104 109.287 17.16C112.231 14.216 115.943 12.744 120.423 12.744C124.946 12.744 128.615 14.024 131.431 16.584C134.247 19.144 135.655 23.0907 135.655 28.424C135.655 33.7573 134.183 37.896 131.239 40.84C128.338 43.784 124.626 45.256 120.103 45.256ZM120.551 13.256C117.308 13.256 114.62 14.7067 112.487 17.608C110.354 20.4667 109.287 24.4773 109.287 29.64C109.287 34.76 110.268 38.5573 112.231 41.032C114.194 43.5067 116.796 44.744 120.039 44.744C123.282 44.744 125.97 43.3147 128.103 40.456C130.236 37.5547 131.303 33.544 131.303 28.424C131.303 23.2613 130.322 19.4427 128.359 16.968C126.396 14.4933 123.794 13.256 120.551 13.256Z" fill="black"/>
</svg>
