<svg width="26" height="33" viewBox="0 0 26 33" fill="none" xmlns="http://www.w3.org/2000/svg">
<path d="M2.4375 33C1.7875 33 1.21875 32.7525 0.73125 32.2575C0.24375 31.7625 0 31.185 0 30.525V2.475C0 1.815 0.24375 1.2375 0.73125 0.7425C1.21875 0.2475 1.7875 0 2.4375 0H23.5625C24.2125 0 24.7812 0.2475 25.2687 0.7425C25.7562 1.2375 26 1.815 26 2.475V30.525C26 31.185 25.7562 31.7625 25.2687 32.2575C24.7812 32.7525 24.2125 33 23.5625 33H2.4375ZM2.4375 30.525H23.5625V2.475H21.0844V13.4475L17.1844 11.1375L13.2844 13.4475V2.475H2.4375V30.525ZM13.2844 2.475H17.1844H21.0844H13.2844ZM2.4375 2.475H13.2844H17.1844H21.0844H23.5625H2.4375Z" fill="url(#paint0_linear_65_3)"/>
<defs>
<linearGradient id="paint0_linear_65_3" x1="13" y1="0" x2="13" y2="33" gradientUnits="userSpaceOnUse">
<stop stop-color="#95D2CF"/>
<stop offset="0.0001" stop-color="#95D2CF"/>
<stop offset="1" stop-color="#1A7C78"/>
</linearGradient>
</defs>
</svg>
